<?xml version="1.0" standalone="no"?>
<!DOCTYPE svg PUBLIC "-//W3C//DTD SVG 20010904//EN"
 "http://www.w3.org/TR/2001/REC-SVG-20010904/DTD/svg10.dtd">
<svg version="1.0" xmlns="http://www.w3.org/2000/svg"
 width="260.000000pt" height="260.000000pt" viewBox="0 0 260.000000 260.000000"
 preserveAspectRatio="xMidYMid meet">
<metadata>
Created by potrace 1.14, written by Peter Selinger 2001-2017
</metadata>
<g transform="translate(0.000000,260.000000) scale(0.100000,-0.100000)"
fill="#000000" stroke="none">
<path d="M2150 2523 c0 -15 2 -16 10 -3 6 9 10 10 10 3 0 -7 -9 -17 -21 -23
-13 -7 -18 -17 -15 -27 6 -14 4 -14 -17 0 -19 12 -24 13 -24 2 0 -8 4 -12 8
-10 4 3 9 -2 12 -9 4 -10 0 -14 -13 -11 -11 2 -23 -1 -26 -7 -4 -7 -2 -8 4 -4
7 4 12 2 12 -3 0 -6 -7 -11 -15 -11 -17 0 -39 -36 -30 -50 4 -6 1 -9 -6 -8
-19 4 -19 -41 0 -53 12 -8 10 -8 -9 -3 -23 6 -24 6 -10 -12 8 -10 20 -23 25
-27 6 -5 1 -7 -11 -4 -27 6 -26 -17 1 -36 14 -11 15 -16 5 -22 -9 -5 -11 -4
-6 3 4 7 2 12 -3 12 -10 0 -12 -6 -10 -27 0 -5 7 -7 15 -5 8 2 14 -1 13 -5 -3
-19 2 -33 12 -33 5 0 7 5 3 12 -4 7 -3 8 5 4 9 -6 9 -11 1 -21 -8 -10 -6 -13
7 -11 13 1 17 -5 15 -18 -3 -18 -2 -18 14 -5 11 8 15 9 10 2 -4 -7 -2 -13 3
-13 6 0 11 -4 11 -10 0 -5 -8 -7 -17 -3 -10 3 -15 3 -11 -1 3 -4 14 -9 25 -11
10 -1 17 -9 15 -16 -2 -8 0 -10 5 -6 11 12 11 30 -2 40 -6 5 -4 7 5 5 8 -3 15
-16 15 -31 2 -35 6 -38 46 -40 24 -1 33 2 31 11 -1 8 2 11 7 7 6 -3 8 -13 5
-23 -5 -14 -2 -13 11 3 17 20 17 20 10 -2 -5 -19 -3 -22 12 -17 14 5 15 4 4
-4 -19 -13 -25 -52 -8 -52 8 0 7 -4 -3 -10 -13 -8 -12 -10 4 -10 13 0 16 -5
12 -16 -4 -12 -2 -15 9 -10 8 3 15 1 15 -5 0 -6 5 -7 12 -3 8 5 9 2 5 -10 -4
-9 -3 -15 2 -12 5 3 11 -1 15 -9 3 -8 0 -17 -6 -21 -7 -5 -8 -2 -3 7 7 12 5
12 -6 1 -12 -11 -12 -14 1 -22 8 -5 19 -6 25 -3 5 3 4 0 -2 -8 -7 -7 -13 -28
-13 -46 0 -18 -4 -33 -9 -33 -6 0 -8 -9 -6 -20 2 -13 0 -18 -7 -14 -6 4 -20 7
-32 8 -11 1 -21 6 -21 13 0 7 -5 17 -12 24 -6 6 -9 19 -5 28 5 14 3 14 -11 3
-22 -19 -35 -8 -33 27 2 22 -2 28 -14 23 -13 -5 -13 -4 0 14 14 19 14 19 -8 0
-12 -11 -22 -14 -22 -8 0 6 -6 12 -12 15 -7 2 -5 3 5 2 9 -2 17 1 17 6 0 5 -5
9 -11 9 -5 0 -7 6 -3 13 5 7 0 6 -11 -3 -10 -8 -16 -10 -12 -4 7 13 -19 27
-33 19 -15 -9 -22 15 -10 30 7 8 8 15 3 15 -5 0 -18 7 -29 15 -19 15 -19 15 1
9 16 -5 17 -4 5 5 -9 6 -18 7 -24 1 -16 -16 -39 10 -25 27 10 11 8 12 -5 7 -9
-4 -16 -3 -15 2 4 24 -3 31 -32 28 -27 -3 -29 -2 -15 12 20 19 21 31 2 15 -12
-10 -14 -8 -10 11 2 13 2 17 -2 11 -6 -14 -25 -18 -23 -5 4 25 -2 34 -15 23
-9 -8 -16 -8 -20 -2 -4 5 2 15 11 21 16 10 16 11 -4 7 -25 -6 -40 8 -22 19 8
5 9 3 4 -6 -5 -9 -4 -11 4 -6 9 6 9 11 0 22 -8 10 -15 11 -24 4 -9 -7 -16 -6
-24 4 -8 10 -9 16 -1 21 5 3 10 11 10 17 0 7 -5 6 -14 -1 -11 -10 -16 -8 -21
8 -7 22 -25 22 -51 1 -16 -14 -16 -13 -4 10 12 24 12 24 -6 8 -22 -19 -57 -7
-48 17 4 8 11 12 16 9 7 -5 7 -1 0 11 -12 22 -43 29 -54 12 -6 -9 -8 -9 -8 1
0 6 -5 12 -11 12 -5 0 -8 -4 -5 -8 7 -12 -41 -9 -51 2 -5 5 -2 6 6 1 10 -6 12
-4 7 4 -6 9 -12 9 -24 -2 -22 -19 -55 -18 -48 0 3 8 1 11 -4 8 -6 -3 -10 -14
-10 -23 0 -14 -2 -15 -9 -2 -6 8 -7 18 -5 22 3 4 0 8 -5 8 -6 0 -11 -7 -11
-16 0 -8 -5 -12 -10 -9 -6 4 -7 12 -3 18 3 7 -2 5 -13 -4 -24 -20 -57 -21 -50
-2 3 8 1 11 -4 8 -6 -3 -10 -14 -10 -23 0 -14 -2 -15 -9 -2 -6 8 -7 18 -5 22
3 4 0 8 -5 8 -6 0 -11 -6 -11 -13 0 -8 -7 -14 -15 -14 -11 0 -12 4 -4 13 7 8
7 14 -1 19 -6 3 -7 11 -4 17 4 7 2 8 -4 4 -7 -4 -12 0 -13 11 0 10 -3 13 -6 6
-2 -7 -9 -13 -14 -13 -6 0 -8 4 -5 9 3 5 -1 12 -10 15 -8 3 -12 2 -9 -4 3 -6
3 -10 -2 -11 -4 0 -16 -2 -26 -4 -9 -2 -15 1 -11 6 3 5 10 7 15 4 15 -10 10 2
-8 16 -14 12 -16 12 -8 0 6 -11 4 -13 -9 -8 -10 4 -15 3 -11 -3 3 -6 1 -10 -4
-10 -6 0 -11 6 -11 13 0 8 -3 7 -10 -3 -5 -8 -19 -16 -30 -16 -16 -1 -19 3
-15 20 5 15 4 17 -3 7 -5 -7 -15 -11 -21 -7 -6 4 -9 2 -6 -6 4 -10 -2 -14 -19
-14 -14 0 -22 4 -20 8 3 5 11 5 17 1 7 -4 6 0 -2 10 -15 19 -26 23 -15 5 5 -8
2 -9 -10 -5 -10 4 -15 3 -11 -3 3 -6 1 -10 -4 -10 -6 0 -11 5 -11 12 0 6 -6 3
-14 -7 -12 -16 -16 -17 -30 -6 -9 7 -13 18 -9 24 3 6 1 7 -6 3 -6 -4 -8 -12
-5 -18 5 -7 2 -9 -8 -6 -8 4 -21 2 -29 -3 -8 -5 -9 -9 -3 -9 7 0 15 -7 18 -16
3 -8 2 -13 -3 -9 -12 7 -41 -5 -41 -17 0 -6 8 -4 18 3 15 13 16 12 3 -4 -11
-14 -16 -15 -29 -5 -12 10 -16 11 -19 0 -3 -6 -9 -9 -14 -6 -6 3 -5 12 3 22
12 15 11 16 -5 3 -10 -8 -16 -20 -13 -28 5 -11 1 -11 -16 -2 -18 10 -20 9 -15
-5 6 -14 3 -16 -16 -11 -22 7 -22 7 -2 -9 19 -14 19 -15 1 -16 -13 0 -16 -5
-12 -17 5 -16 5 -16 -7 -2 -11 15 -14 14 -31 -10 -11 -14 -13 -20 -6 -13 22
19 32 14 13 -6 -14 -15 -23 -17 -38 -9 -17 9 -18 8 -7 -5 18 -22 -12 -33 -33
-12 -8 9 -15 11 -15 6 0 -15 -25 -21 -41 -10 -11 7 -9 8 6 3 16 -5 17 -4 8 6
-10 10 -17 9 -33 -6 -11 -10 -20 -14 -20 -9 0 5 -5 2 -11 -6 -9 -13 -10 -13
-6 0 2 8 10 14 16 13 6 -2 11 2 11 7 0 16 -33 8 -47 -12 -8 -10 -21 -14 -34
-11 -16 5 -18 8 -7 15 11 8 10 9 -1 6 -8 -2 -16 -13 -17 -23 -2 -11 -8 -21
-13 -23 -6 -2 -11 -8 -11 -13 0 -4 8 -6 18 -2 14 5 13 3 -3 -10 -14 -11 -25
-12 -38 -5 -13 6 -23 6 -33 -3 -12 -10 -15 -10 -12 1 2 7 -3 15 -11 18 -10 3
-12 0 -8 -11 3 -9 0 -18 -9 -21 -8 -3 -14 -13 -14 -21 0 -9 -4 -13 -10 -10 -5
3 -10 1 -10 -5 0 -6 -4 -9 -9 -6 -15 10 -41 -28 -31 -44 15 -23 12 -36 -3 -15
-13 17 -14 17 -21 -6 -6 -24 -6 -24 -22 -4 -16 20 -16 19 -9 -4 5 -15 4 -21
-3 -17 -6 3 -14 1 -18 -5 -4 -7 -3 -9 3 -6 6 4 17 0 24 -9 11 -14 10 -18 -6
-30 -21 -16 -29 -44 -12 -44 5 0 8 -3 4 -6 -3 -3 -12 -2 -19 2 -23 15 -38 13
-39 -4 0 -13 -3 -11 -11 6 -6 12 -15 22 -20 22 -5 0 -4 -8 1 -18 8 -15 5 -18
-16 -20 -34 -3 -37 -7 -20 -24 13 -13 12 -16 -7 -28 -19 -12 -20 -12 -8 3 12
14 11 16 -6 14 -12 0 -18 -6 -15 -14 3 -7 -1 -13 -10 -13 -9 0 -13 -8 -12 -25
2 -14 -1 -23 -5 -20 -5 3 -11 1 -15 -5 -4 -7 -13 -7 -26 1 -19 10 -20 7 -18
-91 1 -56 6 -103 12 -107 6 -3 7 -1 3 5 -16 27 11 10 29 -18 11 -16 24 -30 29
-30 5 0 -1 11 -13 24 -13 14 -21 31 -18 38 4 10 6 10 6 0 1 -7 10 -22 21 -34
16 -17 17 -24 7 -36 -10 -13 -9 -14 3 -10 19 7 72 -30 64 -44 -5 -7 1 -9 15
-5 17 4 20 3 11 -7 -8 -10 -6 -13 10 -12 11 0 20 -3 20 -9 0 -5 -4 -10 -9 -10
-5 0 -13 -4 -18 -9 -4 -5 -3 -6 3 -3 16 9 24 -26 11 -49 -9 -16 -8 -17 4 -7
11 9 14 7 14 -12 0 -17 -3 -21 -12 -14 -7 7 -14 6 -19 -2 -4 -8 -3 -9 4 -5 8
5 12 -3 12 -24 0 -21 4 -29 12 -24 7 4 8 3 4 -4 -4 -6 -14 -9 -24 -6 -13 5
-14 4 -3 -4 8 -6 10 -15 5 -23 -6 -12 -5 -12 8 -1 14 11 16 10 11 -7 -3 -12
-9 -19 -13 -16 -5 3 -12 1 -15 -5 -4 -6 -3 -10 2 -9 25 4 36 -3 16 -11 -14 -6
-20 -15 -17 -28 3 -10 -2 -25 -12 -33 -16 -13 -16 -12 -4 11 12 23 12 24 -4
11 -9 -8 -15 -23 -14 -35 2 -15 -2 -21 -15 -20 -15 2 -16 -1 -5 -13 18 -23 18
-55 -1 -48 -9 4 -6 -5 9 -21 14 -15 20 -24 14 -21 -7 4 -15 0 -18 -9 -5 -12
-2 -15 10 -10 14 5 15 4 4 -9 -7 -9 -10 -18 -6 -22 3 -3 6 -1 6 6 0 7 5 9 10
6 6 -4 7 -12 3 -18 -4 -7 0 -6 10 2 14 11 20 11 32 1 14 -12 14 -15 -1 -31
-16 -18 -16 -19 2 -20 16 0 16 -1 -4 -9 -12 -5 -22 -12 -22 -14 0 -3 6 -3 14
0 9 4 13 -2 11 -20 -2 -15 1 -24 6 -20 5 3 6 10 3 16 -4 7 -2 8 4 4 6 -4 8
-14 5 -24 -5 -14 -3 -15 8 -4 7 6 18 12 23 12 6 0 5 -4 -3 -9 -12 -7 -11 -12
1 -30 8 -11 18 -18 21 -14 4 3 7 1 7 -5 0 -5 -6 -12 -12 -15 -7 -3 -3 -4 9 -4
12 1 19 6 16 12 -4 5 -3 7 2 3 4 -4 14 -3 22 4 8 6 13 7 11 2 -2 -5 0 -9 4 -9
3 0 19 -11 34 -25 15 -14 23 -18 19 -10 -8 13 -7 13 8 1 18 -14 24 -26 8 -17
-5 3 -11 -4 -14 -15 -4 -15 -2 -19 8 -15 9 3 12 0 8 -9 -3 -8 -9 -12 -14 -9
-5 3 -6 -3 -2 -12 5 -13 3 -15 -8 -9 -11 7 -12 6 -2 -7 7 -8 9 -19 5 -23 -4
-5 2 -5 12 -1 19 7 19 6 2 -13 -18 -20 -18 -20 3 -16 11 2 21 0 21 -6 0 -5 -8
-9 -17 -10 -12 0 -13 -2 -5 -6 7 -3 20 1 29 9 9 7 14 9 11 3 -3 -5 -2 -19 3
-30 6 -16 8 -17 8 -3 2 31 16 26 16 -5 0 -24 4 -32 18 -31 9 1 17 -3 17 -10 0
-6 5 -4 10 4 5 8 10 10 10 4 0 -5 -6 -16 -12 -23 -10 -11 -10 -13 0 -7 7 4 12
1 12 -8 0 -9 5 -16 11 -16 5 0 7 -5 3 -12 -4 -6 -3 -8 3 -5 6 4 16 0 23 -8 7
-8 9 -15 6 -15 -4 0 0 -10 8 -22 21 -30 20 -44 -1 -27 -15 11 -16 11 -6 0 6
-7 9 -21 6 -30 -4 -12 -3 -13 5 -2 7 9 12 10 16 2 4 -6 4 -11 -1 -11 -4 0 4
-8 17 -17 14 -10 29 -18 33 -18 5 0 15 -9 23 -19 16 -23 61 -28 69 -8 4 11 8
12 20 2 8 -7 12 -16 9 -21 -3 -5 0 -9 5 -9 6 0 11 6 11 14 0 8 5 18 12 22 7 4
8 3 4 -4 -4 -7 -1 -12 9 -12 11 0 15 5 11 15 -3 8 -2 14 2 14 19 -3 25 2 12
11 -13 8 -13 11 -1 22 11 11 13 11 6 -1 -6 -10 -4 -12 4 -7 9 6 9 11 1 21 -8
10 -7 14 2 18 8 3 5 6 -6 6 -18 1 -14 15 5 17 5 1 13 2 17 3 5 0 14 11 21 23
9 18 10 19 6 3 -5 -14 -3 -17 5 -9 18 18 17 100 -2 88 -7 -4 -8 -3 -4 5 6 8
12 9 20 2 9 -8 12 -5 12 11 -1 12 6 22 17 24 9 1 15 -2 12 -6 -3 -5 -1 -12 5
-15 6 -4 9 -1 8 7 -2 7 3 12 10 10 8 -1 11 2 7 8 -3 6 -10 8 -15 5 -4 -3 -11
2 -14 11 -4 12 -1 14 14 9 22 -7 25 12 5 28 -6 5 -1 6 10 2 11 -4 26 -8 33 -8
6 0 12 -4 12 -9 0 -5 5 -6 11 -2 7 4 7 -1 -1 -16 -10 -18 -9 -21 1 -15 9 6 11
3 6 -8 -3 -9 -1 -19 5 -23 6 -4 8 -3 4 4 -4 6 1 10 13 9 14 -1 17 -5 10 -13
-7 -8 -6 -14 1 -19 6 -3 7 -11 4 -17 -4 -7 -2 -8 5 -4 9 6 9 11 0 22 -9 11 -8
14 3 14 20 0 18 -43 -2 -52 -12 -5 -12 -7 3 -7 9 -1 17 -6 17 -12 0 -5 -4 -8
-8 -5 -4 2 -8 -6 -8 -20 0 -13 5 -24 11 -24 5 0 2 -5 -7 -11 -20 -11 -24 -29
-7 -29 5 0 7 5 4 10 -3 5 -1 10 4 10 6 0 11 -10 11 -21 0 -16 5 -20 20 -16 11
3 23 0 27 -5 4 -7 1 -8 -7 -3 -9 5 -11 4 -6 -3 4 -7 15 -12 24 -12 14 0 15 -2
2 -9 -8 -6 -18 -7 -24 -4 -5 4 -6 1 -1 -7 4 -7 8 -26 7 -41 0 -16 4 -32 10
-35 6 -4 8 1 4 13 -4 13 0 25 11 34 16 13 17 12 5 -3 -15 -19 -7 -42 11 -32 8
5 8 3 0 -7 -7 -7 -13 -18 -13 -23 0 -6 4 -4 10 4 10 17 18 12 23 -16 6 -39 16
-45 87 -43 62 2 67 3 53 17 -14 14 -13 17 5 33 12 9 19 19 16 22 -3 3 3 4 13
4 12 -1 19 6 21 21 2 12 9 22 15 22 7 1 1 7 -12 14 -19 11 -21 14 -7 19 9 4
16 11 16 17 0 6 -5 8 -12 4 -7 -4 -8 -3 -4 5 4 6 18 9 31 7 17 -3 22 -1 18 10
-3 8 -1 14 5 14 6 0 12 -5 14 -12 3 -7 7 -5 11 6 4 9 3 15 -3 11 -5 -3 -8 4
-7 15 1 11 5 20 10 20 4 0 6 4 3 8 -7 12 78 9 86 -3 5 -6 8 -5 8 4 0 7 6 11
13 8 13 -5 17 5 18 46 0 13 5 16 19 12 10 -3 22 0 26 6 4 8 3 9 -4 5 -18 -11
-14 0 5 15 9 8 14 9 11 4 -4 -6 -2 -17 3 -25 6 -10 8 -3 4 23 -4 35 -2 38 17
31 15 -4 18 -3 13 6 -5 9 -1 8 16 -1 13 -7 27 -13 31 -14 17 0 48 -36 42 -47
-4 -7 -3 -8 4 -4 7 4 12 2 12 -4 0 -6 5 -8 10 -5 6 3 15 -4 20 -17 10 -21 10
-20 6 7 -3 17 -3 24 0 17 3 -6 9 -10 12 -8 4 2 8 -7 8 -20 1 -13 -2 -24 -6
-24 -4 0 -10 -7 -13 -14 -4 -10 -1 -13 7 -10 7 3 13 -2 13 -10 0 -8 -4 -13 -8
-10 -4 2 -11 -1 -15 -7 -4 -8 -3 -9 5 -5 6 4 14 0 17 -9 5 -12 9 -13 20 -4 8
7 17 9 21 5 3 -3 1 -6 -6 -6 -8 0 -7 -5 4 -16 9 -9 14 -23 10 -32 -4 -12 -3
-12 9 -3 11 9 14 8 12 -6 0 -11 6 -17 19 -17 11 0 23 -5 27 -11 4 -5 8 1 8 15
0 17 3 21 8 12 7 -10 20 -11 61 -3 2 1 -4 13 -14 27 -16 25 -16 25 6 14 19
-11 21 -10 16 4 -5 12 -3 15 5 10 8 -5 9 -1 4 12 -6 15 -5 17 5 7 18 -18 32
-16 25 3 -4 11 -2 15 7 11 8 -3 14 1 14 9 0 9 -7 13 -21 9 -12 -3 -15 -2 -8 1
6 3 12 12 12 19 0 7 -6 16 -12 19 -7 3 1 4 17 1 21 -4 26 -3 16 4 -23 15 -22
40 0 36 10 -2 19 1 19 7 0 6 3 8 7 5 7 -8 33 11 33 24 0 5 -5 9 -11 9 -5 0 -8
-4 -5 -8 3 -5 -2 -9 -10 -9 -10 0 -8 7 8 25 13 14 17 22 11 18 -8 -4 -13 -1
-13 9 0 9 4 14 8 11 5 -3 9 1 9 9 0 8 -4 12 -9 9 -4 -3 -8 2 -8 11 0 9 4 14 8
11 5 -3 9 2 9 10 0 8 -6 13 -14 10 -7 -3 -13 -3 -13 0 0 2 11 9 25 14 14 5 25
15 25 21 0 8 -4 8 -14 0 -10 -8 -16 -9 -21 -1 -4 6 -3 10 2 9 4 -1 10 -1 13 1
22 8 50 8 45 0 -3 -5 -2 -10 4 -10 5 0 9 9 8 19 0 11 -4 18 -7 16 -4 -2 -7 2
-7 9 0 7 10 12 23 10 16 -1 21 2 17 12 -3 9 1 14 12 14 9 0 13 -4 10 -10 -3
-6 1 -7 10 -3 13 5 14 7 3 14 -7 5 -8 9 -3 9 6 0 3 5 -5 10 -12 8 -12 10 5 11
11 0 14 3 7 6 -6 2 -10 9 -6 14 3 5 1 9 -5 9 -14 0 -10 34 6 49 16 14 17 7 3
-19 -9 -16 -8 -18 5 -14 9 4 14 9 11 12 -6 5 21 62 30 62 2 0 0 -9 -6 -21 -7
-11 -9 -23 -6 -27 3 -3 6 0 6 7 0 7 4 10 8 7 4 -2 9 6 10 20 1 13 -3 24 -9 24
-5 0 -7 5 -4 10 4 6 11 8 16 5 5 -3 6 1 3 9 -3 9 -9 14 -13 12 -10 -6 -8 41 2
50 4 5 5 1 2 -8 -4 -9 -2 -19 3 -22 5 -3 8 8 6 26 -2 18 1 35 8 40 10 6 10 8
0 8 -7 0 -10 4 -7 10 4 6 -1 7 -11 3 -15 -5 -14 0 6 28 20 28 21 31 4 16 -17
-14 -21 -15 -21 -2 0 8 3 13 5 10 3 -3 14 3 25 12 11 10 17 12 13 6 -9 -15 3
-17 24 -3 10 6 11 10 3 10 -7 0 -13 5 -13 11 0 5 5 7 10 4 14 -8 13 8 -1 22
-9 9 -7 10 10 6 13 -3 21 -1 21 6 0 7 -3 10 -7 8 -5 -3 -15 2 -23 11 -13 14
-12 15 4 9 17 -7 17 -6 5 10 -12 15 -12 16 4 10 12 -4 17 -1 17 11 0 15 2 15
10 2 8 -12 10 -10 11 10 0 14 3 19 6 12 2 -6 9 -10 14 -6 5 3 5 13 -1 25 -6
10 -7 19 -3 19 4 0 1 5 -7 10 -11 7 -11 10 -2 10 7 0 10 5 7 10 -4 6 -1 9 6 8
6 -2 14 3 16 10 3 8 -1 10 -14 6 -10 -4 -2 4 17 18 21 14 34 31 32 41 -2 9 1
17 7 17 10 0 10 -18 -1 -36 -4 -6 -2 -11 5 -11 9 0 12 20 11 71 -2 87 -2 84
-15 66 -9 -13 -10 -13 -6 0 2 8 10 14 16 13 12 -3 15 13 4 20 -5 2 -2 2 6 0 7
-2 21 2 29 9 13 11 15 10 9 -5 -4 -11 -3 -16 3 -12 11 7 14 422 4 449 -5 14
-9 14 -22 4 -13 -11 -14 -10 -8 10 5 13 3 22 -3 22 -6 0 -11 -6 -11 -14 0 -8
-5 -18 -12 -22 -8 -5 -9 -2 -5 10 4 10 2 27 -5 39 -10 19 -9 20 4 10 12 -11
14 -9 13 7 -1 11 -5 23 -10 27 -4 5 -5 2 0 -6 5 -9 4 -12 -3 -7 -6 4 -9 13 -5
22 4 12 8 12 22 2 14 -12 15 -11 2 5 -11 14 -16 15 -29 5 -13 -10 -14 -10 -8
0 4 7 1 15 -8 18 -9 3 -16 10 -16 16 0 5 -7 16 -15 25 -21 20 -11 30 12 12 16
-12 17 -12 6 2 -7 9 -9 20 -5 24 4 5 -1 5 -10 2 -10 -3 -20 -1 -24 5 -4 6 -3
8 3 5 6 -4 18 2 28 13 10 11 23 16 33 12 15 -5 15 -4 0 12 -24 23 -23 29 3 16
19 -11 20 -10 8 12 -11 21 -11 22 5 9 14 -12 17 -12 14 -1 -5 21 -22 39 -32
32 -5 -3 -6 0 -2 7 6 9 11 9 22 0 12 -10 15 -10 12 2 -2 7 -9 20 -15 27 -16
16 -17 32 -2 32 5 0 8 -4 4 -9 -3 -5 -2 -12 3 -15 4 -2 9 4 9 15 1 10 -3 19
-8 19 -6 0 -7 6 -2 13 4 6 8 27 8 45 1 24 -2 31 -12 28 -8 -3 -16 1 -19 9 -4
8 -11 12 -18 8 -6 -4 -5 1 3 10 15 18 2 24 -16 6 -7 -7 -12 -6 -16 5 -3 8 -1
18 5 22 7 5 8 2 3 -6 -5 -8 -4 -11 3 -6 6 4 8 14 5 23 -4 11 -8 13 -11 5 -2
-7 -8 -12 -14 -12 -6 0 -8 7 -5 15 4 8 1 17 -5 21 -7 4 -8 3 -4 -4 4 -7 1 -12
-9 -12 -10 0 -13 5 -9 12 5 7 2 9 -9 5 -11 -4 -14 -2 -10 8 3 8 10 12 16 8 6
-3 7 -1 3 6 -6 9 -11 9 -22 0 -19 -15 -18 -4 1 14 13 13 -2 15 -120 16 -124 2
-135 0 -135 -16z m20 -39 c0 -8 -19 -13 -24 -6 -3 5 1 9 9 9 8 0 15 -2 15 -3z
m370 -118 c0 -2 -7 -7 -16 -10 -8 -3 -12 -2 -9 4 6 10 25 14 25 6z m-495 -25
c3 -5 2 -12 -3 -15 -5 -3 -9 1 -9 9 0 17 3 19 12 6z m-701 -50 c-4 -3 -9 0
-11 7 -3 6 -10 9 -15 6 -7 -4 -8 -2 -4 5 6 9 11 9 22 0 8 -6 12 -15 8 -18z
m366 -22 c0 -15 -18 -19 -23 -6 -3 8 1 14 9 14 8 0 14 -4 14 -8z m784 -121
c-3 -4 -11 -5 -19 -1 -21 7 -19 12 4 10 11 0 18 -5 15 -9z m-2101 -103 c-3 -9
-8 -14 -10 -11 -3 3 -2 9 2 15 9 16 15 13 8 -4z m1831 -3 c3 -5 -1 -9 -9 -9
-8 0 -12 4 -9 9 3 4 7 8 9 8 2 0 6 -4 9 -8z m-1894 -42 c0 -5 -5 -10 -11 -10
-5 0 -7 5 -4 10 3 6 8 10 11 10 2 0 4 -4 4 -10z m1980 -25 c0 -2 -6 -5 -13 -8
-8 -3 -14 1 -14 8 0 7 6 11 14 8 7 -3 13 -6 13 -8z m-2040 -109 c0 -11 -19
-15 -25 -6 -3 5 1 10 9 10 9 0 16 -2 16 -4z m-145 -406 c3 -5 1 -10 -4 -10 -6
0 -11 5 -11 10 0 6 2 10 4 10 3 0 8 -4 11 -10z m135 -720 c0 -5 -2 -10 -4 -10
-3 0 -8 5 -11 10 -3 6 -1 10 4 10 6 0 11 -4 11 -10z m111 -43 c-1 -12 -15 -9
-19 4 -3 6 1 10 8 8 6 -3 11 -8 11 -12z m1379 -248 c0 -5 4 -8 9 -5 5 3 12 -1
15 -9 5 -13 2 -14 -17 -3 -12 7 -26 11 -30 10 -5 -1 -6 2 -2 8 8 13 25 13 25
-1z m60 -51 c0 -4 -4 -8 -9 -8 -6 0 -12 4 -15 8 -3 5 1 9 9 9 8 0 15 -4 15 -9z
m-1230 -24 c0 -8 -19 -13 -24 -6 -3 5 1 9 9 9 8 0 15 -2 15 -3z m10 -28 c0
-11 -19 -15 -25 -6 -3 5 1 10 9 10 9 0 16 -2 16 -4z m48 -100 c14 5 14 4 2 -4
-16 -12 -40 2 -40 22 0 6 5 3 11 -6 5 -10 17 -15 27 -12z m1312 -44 c0 -5 -7
-9 -15 -9 -8 0 -12 4 -9 9 3 4 9 8 15 8 5 0 9 -4 9 -8z m-730 -101 c0 -6 -4
-12 -8 -15 -5 -3 -9 1 -9 9 0 8 4 15 9 15 4 0 8 -4 8 -9z"/>
<path d="M2022 2405 c4 -4 3 -14 -3 -22 -7 -8 -8 -13 -1 -13 15 0 23 28 9 36
-7 4 -9 4 -5 -1z"/>
<path d="M1010 2350 c0 -5 5 -10 11 -10 5 0 7 5 4 10 -3 6 -8 10 -11 10 -2 0
-4 -4 -4 -10z"/>
<path d="M1170 2350 c0 -5 5 -10 11 -10 5 0 7 5 4 10 -3 6 -8 10 -11 10 -2 0
-4 -4 -4 -10z"/>
<path d="M1430 2289 c0 -5 5 -7 10 -4 6 3 10 8 10 11 0 2 -4 4 -10 4 -5 0 -10
-5 -10 -11z"/>
<path d="M1550 2289 c0 -5 5 -7 10 -4 6 3 10 8 10 11 0 2 -4 4 -10 4 -5 0 -10
-5 -10 -11z"/>
<path d="M1710 2236 c0 -2 7 -7 16 -10 8 -3 12 -2 9 4 -6 10 -25 14 -25 6z"/>
<path d="M2020 2159 c0 -5 5 -7 10 -4 6 3 10 8 10 11 0 2 -4 4 -10 4 -5 0 -10
-5 -10 -11z"/>
<path d="M540 2149 c0 -5 5 -7 10 -4 6 3 10 8 10 11 0 2 -4 4 -10 4 -5 0 -10
-5 -10 -11z"/>
<path d="M440 2104 c0 -2 9 -8 20 -14 15 -8 18 -8 14 3 -4 11 -34 21 -34 11z"/>
<path d="M2035 1980 c3 -5 8 -10 11 -10 2 0 4 5 4 10 0 6 -5 10 -11 10 -5 0
-7 -4 -4 -10z"/>
<path d="M245 1900 c3 -5 8 -10 11 -10 2 0 4 5 4 10 0 6 -5 10 -11 10 -5 0 -7
-4 -4 -10z"/>
<path d="M2335 1809 c-4 -6 -5 -12 -2 -15 2 -3 7 2 10 11 7 17 1 20 -8 4z"/>
<path d="M2265 1771 c-3 -5 -2 -12 3 -15 5 -3 9 1 9 9 0 17 -3 19 -12 6z"/>
<path d="M2294 1753 c2 -12 -1 -24 -8 -27 -8 -3 -8 -5 1 -5 17 -1 22 11 12 34
-9 19 -9 19 -5 -2z"/>
<path d="M45 1730 c-4 -6 -11 -7 -17 -4 -7 4 -8 2 -4 -5 6 -9 11 -9 22 0 14
11 18 19 10 19 -3 0 -8 -5 -11 -10z"/>
<path d="M110 1422 c0 -5 7 -9 15 -9 8 0 12 4 9 9 -3 4 -9 8 -15 8 -5 0 -9 -4
-9 -8z"/>
<path d="M170 1319 c0 -5 5 -7 10 -4 6 3 10 8 10 11 0 2 -4 4 -10 4 -5 0 -10
-5 -10 -11z"/>
<path d="M2507 1273 c-4 -6 0 -13 8 -17 8 -3 17 0 21 6 4 6 3 8 -4 4 -5 -3
-12 -1 -14 6 -3 8 -6 9 -11 1z"/>
<path d="M116 1061 c-3 -5 1 -11 9 -14 9 -4 12 -1 8 9 -6 16 -10 17 -17 5z"/>
<path d="M179 872 c9 -7 10 -11 2 -15 -7 -4 -8 -5 -1 -3 16 2 14 20 -2 24 -10
3 -10 2 1 -6z"/>
<path d="M1477 313 c-4 -3 -7 -11 -7 -17 0 -6 5 -5 12 2 6 6 9 14 7 17 -3 3
-9 2 -12 -2z"/>
<path d="M1504 312 c4 -3 14 -7 22 -8 9 -1 13 0 10 4 -4 3 -14 7 -22 8 -9 1
-13 0 -10 -4z"/>
<path d="M635 200 c3 -5 8 -10 11 -10 2 0 4 5 4 10 0 6 -5 10 -11 10 -5 0 -7
-4 -4 -10z"/>
</g>
</svg>
